<svg width="46" height="42" viewBox="0 0 46 42" fill="none" xmlns="http://www.w3.org/2000/svg">
<path fill-rule="evenodd" clip-rule="evenodd" d="M44.9988 18.1391C46.032 19.9064 46.032 22.0936 44.9988 23.8609L36.4771 38.4372C35.4605 40.176 33.5976 41.2448 31.5835 41.2448H14.4165C12.4024 41.2448 10.5395 40.176 9.52292 38.4372L1.00122 23.8609C-0.032022 22.0936 -0.0320241 19.9064 1.00122 18.1391L9.52292 3.56279C10.5395 1.82398 12.4024 0.755188 14.4165 0.755188H31.5835C33.5976 0.755188 35.4605 1.82398 36.4771 3.56279L44.9988 18.1391ZM7.18672 23.2283L13.4866 34.0041C13.2097 34.3732 13.0453 34.8336 13.0453 35.3328C13.0453 36.5471 14.0175 37.5315 15.2166 37.5315C16.3538 37.5315 17.2868 36.6462 17.3802 35.5192H28.6414C28.6725 35.8279 28.7666 36.1177 28.9105 36.3752C29.2667 37.0581 29.9751 37.5236 30.7909 37.5236C31.3968 37.5236 31.9436 37.2668 32.3307 36.8547C32.7272 36.4564 32.9727 35.9042 32.9727 35.2939C32.9727 34.7829 32.8005 34.3125 32.5116 33.9391L38.8048 23.1747C38.954 23.2075 39.1089 23.2248 39.2678 23.2248C40.467 23.2248 41.4391 22.2404 41.4391 21.0261C41.4391 19.8119 40.467 18.8275 39.2678 18.8275C39.1947 18.8275 39.1225 18.8311 39.0513 18.8383L32.6385 7.86927C32.8379 7.53688 32.9527 7.14671 32.9527 6.72938C32.9527 5.97838 32.5809 5.31532 32.0135 4.9187C31.6677 4.67201 31.246 4.52714 30.7909 4.52714C30.6161 4.52714 30.4462 4.5485 30.2837 4.58879C29.5354 4.76652 28.9362 5.33617 28.7089 6.0722H17.2652C17.2257 5.9577 17.1771 5.84753 17.1203 5.74257C16.7764 5.02322 16.0486 4.52714 15.2064 4.52714C14.2547 4.52714 13.4491 5.1606 13.1784 6.03385C13.0913 6.27182 13.0437 6.52921 13.0437 6.79785C13.0437 7.188 13.1441 7.55442 13.3201 7.87207L6.88677 18.8762C6.84599 18.8739 6.8049 18.8727 6.76354 18.8727C6.7451 18.8727 6.72671 18.873 6.70837 18.8734L6.70577 18.8734C5.53208 18.8734 4.58062 19.8369 4.58062 21.0254C4.58062 21.2019 4.60161 21.3734 4.6412 21.5376C4.85238 22.5279 5.72238 23.27 6.76354 23.27C6.90835 23.27 7.04985 23.2556 7.18672 23.2283ZM8.58422 19.873C8.80596 20.2177 8.93481 20.6293 8.93481 21.0714C8.93481 21.4645 8.83289 21.8336 8.65436 22.1529L12.459 28.8263L25.4124 21.9388C25.4061 21.8702 25.4028 21.8006 25.4028 21.7303C25.4028 20.516 26.3749 19.5317 27.5741 19.5317C28.7732 19.5317 29.7453 20.516 29.7453 21.7303C29.7453 22.9446 28.7732 23.9289 27.5741 23.9289C27.1385 23.9289 26.733 23.7991 26.393 23.5755L13.4031 30.4824L14.9261 33.1537C15.0211 33.1408 15.1181 33.1342 15.2166 33.1342C15.9851 33.1342 16.6604 33.5385 17.0463 34.1485L28.9886 34.0835C29.3771 33.4881 30.044 33.0953 30.8015 33.0953C30.9535 33.0953 31.1019 33.1111 31.2452 33.1413L37.5015 22.305C37.2466 21.9447 37.0965 21.5032 37.0965 21.0261C37.0965 20.4504 37.3151 19.9263 37.6728 19.5343L33.7109 12.585L20.328 19.7008C20.3296 19.7355 20.3304 19.7704 20.3304 19.8055C20.3304 21.0197 19.3583 22.0041 18.1591 22.0041C16.96 22.0041 15.9879 21.0197 15.9879 19.8055C15.9879 18.5912 16.96 17.6068 18.1591 17.6068C18.6329 17.6068 19.0712 17.7605 19.4281 18.0212L32.7667 10.929L31.546 8.78785C31.3082 8.87845 31.0506 8.92801 30.7815 8.92801C29.8794 8.92801 29.1058 8.37099 28.7779 7.5781L17.2209 7.64098C16.8943 8.43685 16.1192 8.99648 15.215 8.99648C15.1007 8.99648 14.9884 8.98754 14.8789 8.9703L8.58422 19.873Z" fill="#1CA3C2"/>
</svg>
